<?xml version="1.0" encoding="UTF-8"?>
<svg xmlns="http://www.w3.org/2000/svg" viewBox="0 0 327.43 382">
  <defs>
    <style>
      .cls-1 {
        fill: #f7f2f2;
      }

      .cls-1, .cls-2 {
        stroke: #000;
        stroke-miterlimit: 10;
      }

      .cls-2 {
        fill: #020000;
      }

      .cls-3 {
        fill: #fcf7f7;
      }
    </style>
  </defs>
  <g id="Capa_3" data-name="Capa 3">
    <circle class="cls-2" cx="163.69" cy="152" r="31.5"/>
    <g id="Capa_4" data-name="Capa 4">
      <circle class="cls-1" cx="163.19" cy="151.5" r="24"/>
    </g>
  </g>
  <g id="Capa_2" data-name="Capa 2">
    <polygon class="cls-2" points="225.19 268.5 102.19 268.5 112.19 152.5 215.19 152.5 225.19 268.5"/>
  </g>
  <g id="Capa_5" data-name="Capa 5">
    <g id="layer1">
      <path id="path2311" class="cls-3" d="m185.29,256.99s-.28-.06-.57-.07c-1.33-.05-2.9-.57-4.72-1.54-1.19-.64-3.67-2.95-5.13-4.79-1.53-1.93-2.55-3.6-4.32-7.09-.64-1.25-1.24-2.44-1.35-2.64-.27-.51-.83-1.13-1.13-1.23-.23-.08-1.02-.07-1.5.03-1.05.21-5.21.21-6.96,0-1.41-.17-1.27-.14-2.93-.5-1.49-.32-1.28-.27-2.1-.51-2.19-.66-3.73-1.23-4.57-1.68-.18-.1-.34-.17-.35-.15-.03.02-1.22-.57-2.08-1.04-.36-.2-.73-.37-.83-.38-.1-.01-.39.09-.66.23-.47.25-.52.26-1.72.26-1.04,0-1.27-.02-1.39-.15-.1-.1-.13-.22-.09-.37.07-.28.67-.88,1.23-1.22l.43-.27-.6-.55-.6-.55-.06.28c-.03.15-.07.42-.08.58-.03.38-.26.86-.53,1.1-.43.38-1.87.76-2.17.57-.14-.09-.21-.36-.09-.36.07,0,.21-.26.58-1.09.2-.45.54-.95.94-1.4.17-.19.32-.41.32-.48,0-.07-.41-.56-.92-1.07-1.13-1.15-1.29-1.19-2.46-.62-.87.43-1.16.45-2.1.16-.86-.26-1.26-.44-1.26-.57,0-.14.64-.5,1.33-.74.82-.28,1.37-.29,2.18,0,.35.12.72.22.81.22.31,0-.43-.64-1.12-.98-.63-.31-2.39-.98-2.44-.93-.04.04-.84-.52-1.04-.74-.22-.23-.6-.96-.6-1.15,0-.22.12-.22.57,0,.3.14.67.22,1.22.26.61.04.87.1,1.16.27l.37.22-.4-.62c-.22-.34-.62-1.1-.9-1.69-.27-.59-.53-1.09-.56-1.1-.04-.02-.07-.07-.07-.11s-.19-.54-.43-1.11c-.4-.96-.59-1.51-1.17-3.3-.3-.94-.99-3.86-1.08-4.53-.02-.2-.06-.45-.08-.56-.02-.1-.06-.44-.09-.74-.03-.31-.08-.75-.12-.99-.1-.65-.11-4.75,0-6.02.05-.61.15-1.52.22-2.02.07-.5.15-1.07.17-1.25.02-.19.05-.42.08-.51.02-.1.07-.35.1-.57.25-1.57,1.57-5.78,2.3-7.35.8-1.72,1.38-2.82,1.82-3.43.16-.23.3-.44.3-.47,0-.09,1.96-2.7,2.62-3.49,1.06-1.26,2.85-3.02,4.01-3.94.12-.1.38-.31.58-.47.2-.16.53-.41.75-.56.22-.15.42-.3.44-.33.02-.03.3-.21.61-.39.31-.19.82-.49,1.12-.67.3-.18.57-.33.59-.33s.48-.21,1.02-.47c1.76-.84,2.46-1.11,4.22-1.62,2.17-.63,3.35-.88,5.69-1.19,2.44-.33,5.22-.3,7.92.1.7.1,2.84.6,3.94.91,1.07.31,2,.64,3.19,1.15.24.1.58.24.74.31.54.23,3.07,1.51,3.15,1.6.02.03.2.14.39.26.36.22,1.77,1.13,1.92,1.25.05.04.28.21.52.39.55.41.73.55.93.74.09.08.18.15.21.15.08,0,1.88,1.81,2.36,2.36.23.26.5.58.6.7.1.12.42.51.7.87.78.98,1.08,1.26,2.06,1.85,2.03,1.23,2.7,1.58,2.97,1.54.34-.04.34-.37,0-.58-.29-.18-1.3-1.06-1.88-1.64-.55-.56-.83-.94-1.53-2.14-.56-.96-1.01-1.49-2.18-2.56-.35-.32-.44-.53-.28-.63.07-.05.41.07,1.02.34.14.07.58.26.96.43,1.08.48,2.57,1.26,3.37,1.76.5.32,1.43,1.27,1.72,1.77.28.48.31,1.1.08,1.87-.17.55-.19,1.68-.05,2.05.12.32.34.57.49.57.31,0,.66-1.51.68-2.93.01-1.09-.07-1.28-1.23-2.78-1.71-2.21-1.66-2.17-3.49-3.39-1.23-.82-1.98-1.59-3.59-3.68-.43-.55-.82-1.03-.87-1.07-.05-.04-.06-.06-.02-.07.04,0,.02-.07-.06-.15-.4-.44-.67-1.68-.37-1.68.07,0,.47.3.89.66.42.36.82.66.88.66s.11.03.11.08.07.1.15.13c.08.03.31.14.5.25.19.11.53.27.74.36,1.17.49,1.89.89,2.23,1.24.44.45.91,1.32,1.22,2.27.4,1.2.85,2.1,1.31,2.64.05.06.29.39.53.73.56.81,1.1,1.44,1.22,1.44.16,0,.21-.66.09-1.11-.06-.23-.29-.73-.5-1.1-.65-1.12-1.14-2.34-1.34-3.29-.09-.43-.04-1.61.07-1.93.16-.45.46-.48.7-.08.35.59,1.67,4.56,1.82,5.46.1.59.08,2.03-.04,3.16-.02.16-.06.63-.09,1.04-.1,1.41-.2,1.96-.58,3.28-.31,1.1-.36,1.54-.25,2.56.09.89.28,1.35.98,2.39.21.32.49.85.61,1.18.21.58.28.86.5,2.13.05.31.14.62.19.68.05.06.06.11.03.11s0,.12.08.26c.22.43.46.34.97-.39.58-.83.84-1.55,1.04-2.81.17-1.11.41-1.85.81-2.52.18-.29.35-.55.38-.58.03-.02.12-.13.19-.25.15-.22,1-1.11,1.29-1.35.42-.35.57-.13.38.55-.22.78-.43,1.73-.59,2.62-.16.91-.42,1.66-.67,2.03-.09.13-.16.26-.16.29s-.17.24-.39.47c-.36.38-.54.59-.91,1.02-.61.72-1.63,2.52-1.9,3.32-.21.63-.18.8.1.71.22-.07.99-.8,1.4-1.32.19-.24.36-.46.39-.48.03-.02.14-.18.26-.35.96-1.4,1.76-2.18,3.68-3.6,1.66-1.22,1.91-1.35,1.91-.95,0,.13-.07.28-.63,1.27-.13.24-.29.54-.35.66-.06.12-.32.55-.58.96-1.25,1.97-2.07,2.75-3.66,3.44-.47.21-1.09.52-1.37.7-.53.34-1.58,1.33-2.03,1.93-.14.19-.34.44-.44.57-.21.26-1.09,1.57-1.09,1.62,0,.02-.16.3-.35.62-.67,1.11-1.31,2.48-1.44,3.11-.18.84-.18,1.49,0,1.49.17,0,.77-.61,1.63-1.63.95-1.14,1.37-1.52,1.98-1.79.61-.28.73-.32,1.07-.38.67-.13,1.72-.51,2.01-.72.41-.31.81-.74,1.37-1.47.52-.68.97-1.11,1.1-1.03.13.08.09.5-.14,1.38-.41,1.59-.85,2.47-1.57,3.15-.31.3-1.93,1.16-2.31,1.24-.08.02-.76.23-1.52.48-.76.25-1.41.45-1.44.46-.04,0-.22.08-.41.18-.92.47-1.64,1.22-2.1,2.2-.5,1.07-.5,1.13.04.62.49-.46,1.4-.97,1.56-.87.05.03.09.1.09.16,0,.15-1.17,1.33-1.57,1.6-.3.2-.4.34-.56.85-.06.19-.21,1.13-.28,1.7-.03.23-.06.47-.08.54-.02.07-.14.82-.26,1.66-.35,2.4-.75,3.42-1.79,4.58-.44.49-1.81,1.57-2.94,2.31-.83.55-1.41,1.02-2.11,1.72-.84.83-1.24,1.21-2.34,2.19-1.09.96-3.03,2.27-4.4,2.94-.49.24-.92.47-.95.5-.03.03-.09.06-.12.06-.03,0-.26.09-.5.2-.75.34-.95.43-1.37.58-.48.17-.86.45-.86.63s.28.72.63,1.22c.16.23.33.47.37.55.05.08.12.18.16.23.12.16,1.19,1.65,1.48,2.06.45.64,2.08,2.7,2.2,2.78.06.04.2.19.31.33.29.38,1.7,1.81,2.32,2.34.29.25.59.52.66.6.33.34,1.67,1.26,2.17,1.49.3.14,1.01.37,1.57.52.93.25,1.16.27,2.43.28,1.32.01,1.44,0,2.14-.23,2.26-.75,3.27-1.83,4.11-4.39.24-.74.71-2.68.71-2.94,0-.07.04-.27.09-.44.1-.37.25-.37.61,0,.21.21.22.28.21,1.15,0,.9-.2,2.19-.57,3.87-.23,1.02-.2.94-.33,1.25-.06.14-.16.47-.23.72-.11.44-.22.72-.56,1.47-1.22,2.67-2.47,4.1-4.45,5.07-.58.29-1.75.7-2.24.79-.4.08-2.09.16-2.15.1h0Zm-19.33-19.08c1.36-.19,1.6-.27,1.52-.51-.17-.55-1.88-3.55-2.53-4.43-.22-.29-.39-.55-.39-.58,0-.1-.97-1.34-1.54-1.97-1.47-1.61-2.86-2.57-4.23-2.93-.45-.12-.78-.14-1.53-.1-1.73.09-2.79.54-3.87,1.6-.64.63-1.6,1.93-1.6,2.17,0,.05-.06.21-.14.36-.22.41-.49,1.53-.53,2.19-.04.6-.04.62.24.91.16.16.64.53,1.08.82,2.05,1.35,4.48,2.11,8.41,2.64.63.08,4.18-.03,5.12-.16h0Zm6.87-2.13c1.07-.51,1.44-1.13,1.44-2.42s-.28-1.81-1.07-2.2c-.49-.25-1.19-.55-1.27-.55-.23,0-1.35-1.54-1.68-2.31-.02-.04-.17-.25-.33-.47-.39-.51-.38-.69.03-.8.18-.05.42-.09.53-.09.43,0,1.49.29,2.09.58,1.09.52,1.64,1.33,2.12,3.14.14.53.28.9.31.83.13-.34.33-1.24.37-1.75.09-.99-.27-3.16-.65-3.91-.22-.43-.42-.6-.79-.67-.25-.05-.42.01-1.08.39-1.11.63-1.46.72-2.32.56-.52-.1-1.89-1.19-2.49-2-.37-.49-.26-.58.69-.52.45.03,1.33-.01,2.17-.1,1.62-.17,1.83-.15,2.62.22.19.09.48.19.63.22.26.05.28.04.33-.24.07-.35-.15-2.64-.36-3.77-.18-.96-.27-1.07-1.13-1.43-.46-.19-.75-.39-1.14-.78-.48-.48-.55-.6-.78-1.36-.14-.46-.41-1.13-.59-1.5-.44-.88-.44-.99.02-.92.43.07,1.54.7,2.16,1.24.69.59,1.3,1.3,1.53,1.77.19.4.32.56.48.6.34.09.45-.01.56-.49.18-.82.12-1.24-.27-2.21-.49-1.22-.59-1.64-.56-2.37.05-1.18.31-2.21.73-2.89.33-.53.48-.38.84.9.12.41.32,1.04.45,1.4.34.95.42,1.37.41,2.05-.01.73-.17,1.3-.64,2.35-.54,1.2-.41,1.63.67,2.19,1.34.7,2.78,1.28,3.16,1.28.5,0,.55-.12.45-1.12-.14-1.4-.05-1.84.64-3.04.54-.94.7-1.31.7-1.62s-.13-.78-.25-.87c-.27-.21-1.13-1.42-1.37-1.96-.39-.85-.46-1.15-.26-1.22.14-.05.21,0,1.23.94.34.31.64.44.79.32.06-.05.14-.4.18-.77.04-.37.08-.71.09-.74,0-.04.02-.11.03-.15,0-.05.1-.09.22-.09.18,0,.25.11.51.72.17.4.37.92.45,1.16.08.24.22.58.31.74l.16.31.07-.26c.09-.33.1-4.96,0-6.75-.09-1.86-.41-4.91-.62-5.94-.02-.1-.06-.39-.1-.66-.12-.96-.59-3.26-1.05-5.21-.75-3.12-2.06-5.85-3.97-8.27-.9-1.15-2.4-2.7-3.05-3.18-.14-.1-.46-.35-.7-.54-.24-.19-.51-.4-.6-.46-.09-.06-.32-.21-.52-.34-.6-.41-1.79-1.08-1.79-1.01,0,.03-.03.02-.07-.03-.18-.24-2.12-.98-3.34-1.27-1.1-.26-1.26-.29-2.6-.43-.68-.07-4.12-.05-4.62.03-.14.02-.52.07-.83.11-.31.04-.59.07-.61.08-.02,0-.22.04-.44.08-.51.09-2.15.52-2.89.75-1.87.6-4.43,2.06-5.77,3.29-2.26,2.08-3.88,4.29-5.3,7.25-.52,1.08-1.04,2.43-1.19,3.07-.13.59-.14.59-.37,1.48-.26.95-.56,2.25-.63,2.67-.03.17-.07.37-.09.44-.08.27-.49,2.8-.66,3.99-.3,2.21-.38,4.18-.32,8.39.05,3.69.08,4.19.36,6.3.03.19.07.53.1.74.03.22.13.81.23,1.31.1.51.19,1.02.21,1.14.09.59.67,2.66,1.23,4.35.72,2.16,1.92,4.88,2.34,5.26.26.24.18.27,1.02-.44,1.37-1.15,1.8-1.16,1.53-.01-.15.64-.39,1.2-.78,1.81-.17.27-.31.58-.31.7,0,.32.36.83,1.17,1.67.95.98,1.01.97,1.2-.19.18-1.1.34-1.64.74-2.47,1.16-2.42,3.18-3.82,6.24-4.34,1.92-.33,3.48-.08,5.56.87,1.76.8,4.4,3.11,6.49,5.66.33.4.61.74.64.77.12.11,1.08,1.44,1.66,2.3.35.52.68.94.74.94.06,0,.34-.11.63-.25h0Zm3.75-3c.36-.38.74-.82.86-.97.11-.15.27-.34.35-.43.16-.17,1.3-1.85,1.45-2.15.09-.17.07-.18-.29-.2-.21,0-.49-.06-.63-.11-.33-.13-1.01-.12-1.27,0-.44.23-.86,1.01-1.31,2.45-.14.46-.36,1.14-.47,1.51-.12.38-.24.85-.27,1.05l-.06.36.49-.42c.27-.23.79-.73,1.15-1.12h0Zm10.14-4.45c.24-.29.37-.59.28-.69-.07-.07-.42.34-.62.71-.11.21-.11.24,0,.24.07,0,.22-.12.35-.26h0Zm-9.29-.92c.87-.84,1.35-1.1,2.08-1.11.44,0,.46-.02.31-.15-.32-.27-.97-1.11-1.36-1.76-.38-.63-.52-.98-.79-1.96-.16-.6-.46-.89-.98-.96-.71-.11-1.22.2-1.33.8-.18.95.37,4.8.8,5.63.21.41.43.33,1.28-.49h0Zm4.27-3.38c.11-.26.24-.54.27-.64.12-.29.5-1.47.57-1.75.04-.14.08-.3.09-.35.21-.69.82-3.99.82-4.46,0-.25-.12-.07-.3.43-.22.61-.62,1.4-.97,1.91-.16.24-.3.46-.3.5s.1.11.22.16c.3.14.27.31-.08.58-.52.39-.61.75-.65,2.57-.02.93,0,1.59.04,1.56.04-.03.17-.26.28-.51h0Zm-1.04-1.16c.01-.77.01-1.45,0-1.5,0-.08-.09-.07-.31.02-.17.07-.44.13-.61.13s-.33.04-.35.08c-.03.04.02.25.11.46.29.68,1.08,2.27,1.11,2.25.02-.02.04-.66.05-1.43h0Zm-5.21-2.29c.29-.29.4-.54.35-.76-.07-.27-.43-.63-.56-.55-.12.07-.27.61-.23.81.14.71.18.75.43.49Zm-.74-1.95s-.04-.11-.09-.14c-.05-.03-.09,0-.09.08s.04.14.09.14.09-.04.09-.08Zm18.44-11.15c.44-1.1.67-3.33.59-5.75-.08-2.24-.08-2.27-.81-2.96-.91-.87-1.22-1.07-1.34-.88-.03.05.09.67.27,1.38.18.71.35,1.44.38,1.63.25,1.6.27,1.79.4,3.63.05.65.09,1.7.1,2.34.02,1.3.09,1.4.41.59h0Zm-.26-12.84c.02-.13-.06-.52-.16-.87-.17-.56-.25-.7-.73-1.17-.59-.58-.96-.74-1.71-.74-.5,0-.86.24-.76.5.09.25.76,1.01,1.22,1.4.88.74.97.81,1.32.98.48.24.78.2.81-.1h0Z"/>
    </g>
  </g>
</svg>